<?xml version="1.0" encoding="UTF-8"?>
<svg id="Livello_1" data-name="Livello 1" xmlns="http://www.w3.org/2000/svg" version="1.1" viewBox="0 0 141.7 141.7">
  <defs>
    <style>
      .cls-1 {
        fill: #851d3a;
      }

      .cls-1, .cls-2 {
        stroke-width: 0px;
      }

      .cls-2 {
        fill: #dabe39;
      }
    </style>
  </defs>
  <path class="cls-1" d="M191.2,14.8c-1.1-1.5-2.9-.4-4.3-1-1.3-.5-1.8.2-3,.2-5.1-.3-11.4,4.7-14.2,3.3-.2-.6,0-1.4-.5-1.5-.4-1.4-1.5-1.6-2.8-1.7-.4.3-.8.6-1.2.9-.4,0-.6.3-.6.5,0,0,0,0,0,0-.4.2-.5.6-.7,1-.2,0-.4,0-.5.3,0,0,0,0,0,.1,0,0,0,0-.1,0,0,.1,0,.2-.1.4-.2-.2-1,.1-1.4.6,0,0,0,0,0,0-.5.2-1.1.6-1.6,1h0c-.6,0-2.1.3-2.9,1.1-.3.3-.6.5-1,.8-.2.8-.8.7-1.5,1.4-.2,0-.3,0-.4.2,0,0,0,0,0,0,0,0-.2,0-.4.2-.1,0-.2,0-.2.2-.5,0-.3,0-.4.4,0,0,0,0,0,0-.3.1-.7.3-1.4.7-.3.2-.5.1-.5.4-.2,0-.3,0-.4.1-.3,0-.8.2-1.1.5-1.1-.4-1.3-1.1-3.5-.6-4.1,1.1-3.1.5-3.5,1,0,0,0,0,.1,0-1.4.1-1.9,1.2-3,1.3-.9.1-1.8-.1-2.7.1-1,.3-4.9.6-6,0,0-.2,0-.5,0-.7-.1-.1-.2-.2-.4-.4-.4,0-.6,0-.7,0,0,0,0,0,0,0-.2,0-.3,0-.3,0-.2-.2-.5-.4-.7-.5,0-.2-.1-.3-.3-.4-.1,0-.2-.2-.4-.3,0,0,0-.2,0-.3-1.4-.2-1.3-.2-1.1-1.5,0,0,0,0,0,0,0,0,0-.3,0-.9-.9.1-.9.2-1,1,0,.4.5.7.1,1.1-.8.9-.7-.5-1.2-.7,0-.2,0-.5,0-.7-.2-.5-.4-.4-.7,0v.4c0,.3.2,1,.5,1,0,.6.2,1.6.8,2.1.2.2,0,.5-.3.7-.8-.2-.8-.9-1.1-1.5-.3-.7-.8-.4-.9-.1-.3.1-.3.2,0,.4-.6,1.2-1.7,1.1-1.1,1.5,0,.2,0,.3,0,.3-.3,0-.5,0-.7.3h0s0,0,0,0c0,0,0,0,0,0-1.1.3-2-.7-2.1-.7h0c0-.3,0-.6-.4-.7,0,0,0,0,0,0,0,0,0,0,0,0,0,0,0,0,0-.4-.5,0-1.1-.2-1.4.4,0,0,0,0,.1,0-.4.3-.7.8-.9,1.1h.1c-.2,0-.3.2-.5.3,0,0,0,0,0,0-.1,0-.3,0-.7,0,0,0,0-.1,0-.1,0,0,0,0-.1,0-1-1-2-1.9-3.1-2.9,0-.1-.1-.2,0,0,0,0-.2-.2-.3-.3,0-.2,0-.2,0-.4,0-.5-.2-.7-.6-.7-.2-.1-.3-.3-.5-.4,0-.2-.2-.3-.3-.3,0-.2-.2-.3-.4-.4-.5-.9-1-1.1-2.9-2.5-1.6-.4-4.4-2.6-5.8-3.3-.1-.2-.3-.4-.4-.6-.8-.6-4.1-2.8-6.1-3.2-.3-1.2-1.8-1.1-2.4-1.9-1.8,0-4-1.6-5.8-1.9-.4-.4-1.4-.4-5.1-1.6-2.5-.8-4.1-1.1-5.2-1.2,0-.8-.6-1.3-1.6-1.7-.2.6-.3,1.1.2,1.6h0s0,0,0,0c-.6,0-1,0-1.6-.4-.5-.5-1.6-.2-2.8-.7-.3-.1-.6,0-.8.3-.7,0-1.5.3-2.5,0-1.1-.4-2.2-.2-3.3-.3-.2-.3-.4-.3-.8-.3-.1,0-.2,0-.4,0-1.1,0-2.2,0-3.2,0-.6,0-3.2-.2-3.6.3h0c-.2,0-1.5.4-3.5.4-.6,0-1.3.2-1.9.4-.7,0-1,0-1.1,0-.3,0-.3,0-.3,0h0c-2.9.6-7,1.5-9.1,3.6-.9.9-2.6.7-3.4,1.5-1.8,1.7-1.2-.2-3,1.6,0,0,0,0,0,0-1.5.1-1.3.8-2.5,1.5-.4,0-.4.4-.4.7-3,.9-4.5,4-6.4,4s-.8,0-1.1.4c-.9.1-1.2,1.1-2,1.1-.2.5-.3,1-.5,1.4-.2.2-.3.3-.3.4-.3-.2-1.6.2-1.9.3-2.5.1-2.3,2.4-3.8,3.3-.5.4-1.2,1.4-1.4,2.2,0,0,0,0,0,0-1.5.8.4,2.6-.1,3.4-.5.6-1-.3-1.6.1,0,.6,0,1.2,0,1.9-.4.7-.5,1.4,0,2.2-.6.7-1.3.1-1.8.1-1.1,1.5-.3,4-1,4.1-1.5.1-2.4-.7-2.5,2.2.5.3.3.7.4,1.1,0,0,0,0,0,0,0,.1,0,.4,0,1-1.1,0-1.5,1.3-.3,1.8.6.3.9.3,1,.4,0,.1.2.2.3.3,0,2.9-2,2.7-2.5,3.2-.4.1-.7.2-.9.4-.5,0-1,0-1.5.3-.2.6-.3,1.9.6,2.2.6.5,1.4.7,1.8,1.5.2.2.5.2.7.2,0,.6.3,0,.3.9.5.2.8.7,1.4.7,1.3.1,2.7-.8,2.9-2.3.1-1.1.5-2.1.9-3.1.6-1.5.4-1.2.2-4.3.5-.7.7-1.6.7-4.7.2,0,.5,0,.9-.7.4-.9-.2-3.9,4.1-5.8,1-.5,1.8-1.2,2.8-1.6,4-1.8,2.5-4.8,4.3-6.5,9.4-9,12.7-3.5,18.4-6.5.4-.4,1.4-.4,1-1.2h0c.4.4,1,.3,1.5.1.4-.2.7-.3,1.1-.5-.3.8-1.2,1.1-1.6,1.9,0,.4.2.9,0,1.3,0,0,0,0,0,0-.4.3-.7.5-.9.8,0,0,0-.1,0-.2-.8,0-1.9.6-2.6.9,0,0,0,0,0,0-.2,0-.3,0-.4.3h0c-.2,0-.7.3-1,.5,0,0,0,0,0,0-.2,0-.3,0-.4.3,0,0,0,0,0,0-.3,0-.6,0-.7.4-.6.2-1.1.8-1.7.8-2.6,2.2-3.2,2.6-3.3,2.8,0,0,0,0,0,0-.2,0-.3.2-.4.4-.2,0-.3.2-.3.4-1.8,1.4-4.8,4.6-5.8,6.2-.1,0-.2,0-.2.2,0,0,0,0,0,0,0,.2-.1.3-.2.4,0,0,0,0,0,0-.2,0-.3.2-.3.4-.2,0-.3.2-.3.4-2.1,2.5-2.9,3.9-3.3,4.7-.2.2-.3.4-.4.7-.2,0-.3.2-.3.4-.6,1.1-1.5,2-1.8,3.2-.3.1-.4.4-.4.7-.2.3-.4.8-.8,1.4,0,0,0,0,0,0-.6.5-1.3,1.8-1.4,2.5-.2.3-.6.7-.6,1-.2,1.7-1.4,4.2-1.7,5.4-.2.2-.3.4-.3.7-.2.3-.3.7-.2,1.1,0,.2,0,.3,0,.4,0,0,0,0,0,0-.2.3-.5,1.2-.3,1.5-.1,0-.1.1-.8,2.4-.4.5-.4,1.8-.3,2.2h0c0,.5,0,.7,0,.7,0,0,0,0,0,0,0,0,0,.1,0,.3h0c-.5.8,0,.7-.7,3.6-.3.5-.4,1.3-.3,2.3-1.4.3-3.2.8-5.6.5-.1,0-.2.1-.4.2-.1-.4-.6-.8-1.8-.8-.1,0-.2,0-.3,0,0-.1,0,0-.4-.5h0s0,0,0,0c0,0,0-.1,0-.3-.3,0-.6,0-.7.3-.4,0-.6,0-.7,0,0,0,0,0,0,0-.5-.6-.7-.2-1,.2.5.6.2.4,1,.9.2,0,.3,0,.3,0,0,0,0,0,.2,0s.2,0,.2,0c.1.1.2.2.3.3,0,0,0,0,0,0,0,0,0,0,0,0,.1.1.2.3.3.4,0,0,0,0,0,0,.3.5.5,1,.8,1.1,0,.7,1.4,1.3,1.1,3.2-.1,0-.2,0-.4,0-1.4.1-1.7.6-1.2,1.8.1.3.2.6.5.7q-.5,1.1.4,1.8c0,1.5.5.7,1.2,2.7.9,2.4,1,5.8,2.4,6.6,0,1.2.2,2.2,1.1,3.1.2.2.3.4.3.6,0,.8.7,1.5,1.3,1.6,0,0-.1.2-.1.4.1.3.7,1.8.7,1.4.6,0,.5.1,3.9,4.3.6.9.9,2,2.2,2.2,0,0,0,0,0,0,.3.5.4,1.1,1.1,1.2.1,0,.2.4.4.6,0,.1,0,.2,0,.3.5.2.7.9,1.4.8h0s0,0,0,0c0,0,.1.3.4.7.3.6.7,1,1.2,1.3,1,1.7,2.1,3.3,3.9,4.4t0,0h0s0,0,0,0t0,0c0,.5.3.7.7.8,1.2,1.6,1.6,1.9,1.8,1.7.2.6.7,1.2,1.1,1.4.4.7,1.2.9,1.8,1.4,1.2,1.4,3,1.9,4.3,3.2,0,0,.2,0,.3,0,0,.2.1.3.3.3s0,0,.1,0c1.2,1.7,3.5,2.3,6.3,4.8.4.4.9.7,1.6.7,1.2,1,2.4,1.7,3.8,2.2,1.6.6,2.4,1,2.7,1,0,0,0,0,0,0,.6.6,1.4.5,2.2.7.1.3.5.4.7.3,0,0,0,0,0,0,.4.9,1.4.8,2.1,1.1.4.4,1,.3,1.5.3.4.5,1,.3,1.5.3h0c.1.2.4.3.7.4.3.6,2.5.3,3.9.4.3.4.7.3,1.1.3,0,0,0,0,0,0,0,.2,0,.3,0,.3.2.2.8.2,1.4.2,0,0,0,0,0,.2.5,0,.1.2.7-.3h0c.7.3,2.4.4,3.8.4s1.7,0,1.9,0c1,.8,1.1.4,6.1,0,1.8.8.5,0,2.9,0,.3,0,.6,0,.7-.3.3,0,1.2,0,2.2,0,0,0,0,0,0,0,.6.2,1.3,0,2,0,.6,0,1.4.2,2-.5.6,0,1.2,0,1.4,0h0c.5,0,1,.2,1.4-.2,1,0,2.3-.4,3-.8,0,0,.1,0,.3,0,0,0,0,0,0,0,.8,0,1.5,0,2.2-.4h0c.9-.2,2-.6,2.9-1.1,0,0,.1,0,.2,0,.6,0,1.1-.3,1.6-.7h0c.1,0,.2,0,.3,0,.8.4,1-.1,1-.4.2,0,.3,0,.4-.2.8-.3,1,0,1.9-.8h0c.4,0,.6-.1.7-.4.5-.1.7-.8,1.4-.6.2,0,.4-.2.5-.4.2-.2.3-.3.3-.3t0,0c.2,0,.2,0,.2-.1t0,0c1.2,0,1.6-.4,1.4-.6.5-.2.9-.5,1.1-.8,0,0,0,0,0-.1.1.3.5.3,1.2-.5.3,0,.6-.2.7-.4.2,0,.4-.1.5-.3.8-.3,2.3-.7,3.2-2.5,2-1.4,3.6-3.3,4.9-5.4.2,0,.3-.2.3-.4,0,0,0,0,0,0,.8-.9,2.8-3.2,3.3-5,.4-.2,1.2-1.7,2.1-3.6.6-.6,1-1.3,1-2.2,0,0,0,.1-.1.2.6-1.5,1.1-3,1.6-4.5,0,0,0,0,0,.1.5-.2.8-.6.7-1.1,0-.9,0-1,0-1.1,0-.2.1-.7.2-1.1.2-.2.2-.4.2-.7.2,0,.2-.1.2-.2s0-.1-.2-.2c0-.4.2-.7.4-1.1.6-.5.2-1.2.3-1.8,0-.4,0-.6,0-.8.4-.5.3-3.4.2-4.3,0,0,0-.2,0-.3,0-.1,0-.2,0-.4h0c.7-.4.1-2.6.4-5.7.1-1.6-.5-3.2,0-4.9.2-.8-.2.8-.5-2.6.2-.3.2-.7,0-1,0-.7.4-1.3.2-1.9-.5-1.6,0-3.4-.4-4,0-.4,0-1-.2-1.8,0-.4,0-.6,0-.7,0-.2,0-.4,0-.6,1-2.1-1.5-3.1-.7-6,0-1-1-1.4-1-2.2.3-.9.4.4-.5-3.4,0-.4,0-1-.6-1.3-.5-3.9-1.9-7.1-3.2-9.7.5-.2,1.2-.5,2-.8,0,0,0,0,0,0,0,0,.2,0,1,.1.3.4.7.3,1.1.3.1,0,.2,0,.4,0,0,0,0,0,0,0,.1.1.2.2.3.1.2.3.5.3.8.3,0,0,.2.1.3,0,.2.3-.3.3,2.7.4.2,0,.4.1.6.3.7,0,1.2.4,1.9.5,3.8.8,1.6-.8,3.8-1.9,5.1-.1,9.9-3.4,11.8-3.3,0-.1,0-.2,0-.3,0,0,0,0,0,0,2.3.2,1.6-1.1,3.9-1.1.6-.6.9-.3,1.1-.7,0,0-.2,0-.2,0,.2,0,.3,0,.2,0,.1,0,.2,0,.3,0,.2,0,.3,0,.4,0,0,0,0,0,0,0,.2,0,.3-.2.4-.3,1,.2,3.4-1.3,4.3-1.8,2.3-.8,2.2-.3,5.4-2.1.6,0,1.1,0,1.7-.4,1.3-1,3.1-1.1,4.4-2.1.2-.2.7,0,1,0,.4-.5.7-1,1.1-1.4.5,0,.9-.2,1.1-.7.1,0,.2,0,.4,0,.4-.5,1.2-.7,1.4-1.4h0c0,0,.2,0,.3,0,6.7-7,6.6-5.1,8.1-6.7.2,0,.3,0,.5-.1,1.2-1.2,1.7-1.2,2.7-2.8.8-1.3.8-1.4,0-2.5ZM16.2,28.1s0,0,0,0c0,0,0,0,0,0,0,0,0,0,0,0ZM6.4,79.5s0,0,0,0c0,0,0,0,0,0h0ZM10,90.7s0,0,0,0c0,0,0,0,0,0h0ZM11.5,87.7s0,0,0,0h0s0,0,0,0c0,0,0,0,0,0h0ZM12.6,95.7s0,0,0-.1c0,0,0,0,0,.1h0ZM15.5,66.5s0,0,0,0c0,0,0,0,0,0h0ZM18.7,99.4s0,0,0,0t0,0s0,0,0,0ZM22.8,73.4h0s0,0,0,0c0,0,0,0,0,0ZM23.5,50.9s0,0,0,0c0,0,0,0,.1,0,0,0,0,0,0,0ZM118.1,77.1s0,0,0,0c0,0,0,0,0,0,0,0,0,0,0,0ZM116.6,88.3s0,0,0,0c0,0,0,0,0,0h0ZM106.6,39.5c0,0,0,.1,0,.2,0,0,0,0-.1-.1,0,0,0,0,0,0ZM104.4,38.1s0,0,0,0c0,0,0,0,0,0h0ZM90.2,14.8c0,0-.1,0-.2,0,0,0-.2-.1-.2-.2.2,0,.3,0,.4,0ZM84.3,11.3h0s0,0,0,0c.1,0,.2.2.3.3-.3,0-.5-.1-.3-.2ZM81.1,10.1s0,0,0,0h0ZM72.9,20.3c0,0,0,0,.1.1,0,0,0,0-.1,0,0,0,0,0,0-.1ZM71.8,6.5s0,0,0,0h0s0,0,0,0ZM70.6,7.3s0,0,0,0c0,0,.1,0,.2,0,0,0-.2.1-.3.2,0,0,0-.1,0-.2ZM65.7,14.5c0,0-.2,0-.3.1-.3,0-1.2,0-2.5.4-.5-.1-1-.2-1.5-.3,1.8-.1,3.2-.2,4.3-.2ZM65.5,21.2h0s0,0,0,0ZM53,9h0s0,0,0,0h0s0,0,0,0ZM52.4,8.6s0,0,0,0h0s0,0,0,0ZM48.2,10.5s0,0,0,0h0s0,0,0,0ZM44.5,22.4c-.2.2-.3.4-.4.5,0-.3.2-.4.4-.5ZM42.5,31.5h0s0,0,0,0c0,0,0,0,0,0h.1ZM35.5,41.1s0,0,0,0c0,0,0,0,0,0,0,0,0,0,0,0ZM34.3,28.4s0,0,0,0h0ZM30,49.4s0,0,0,0c0,0,0,0,0,0,0,0,0,0,0,0,0,0,0,0,.1,0ZM25.3,56.2s0,0,.1,0c0,0,0,0,0,.1,0,0,0,0,0,0h0ZM24.9,43.7s0,0,0,0c0,0,0,0,0,0h0ZM30,114.5s0,0,0,0t0,0s0,0,0,0ZM52.8,118.6c-1.6-.8-2.5-.2-3-.8-.2-.4-.7-.6-.9-1.1-.4-1.2-1.4-1.9-2.6-2.3,0,0-.1,0-.2,0-.1-.2-.3-.4-.5-.6-.7-.8-1.6-1.2-2.3-1.9-.7-.7-1.4-1-2.2-1.1-.1,0-.2-.1-.3-.2-1.4-.7-2.7-1.5-4-2.5,0-.2,0-.5-.2-.6-.9-.6-1.7-1.2-2.7-1.7-1-1.5-2.1-3.3-3-4.5,0-.2,0-.5,0-.7-.8-.3-.6-1.3-1.4-1.5-.2-.3-.4-.8-.8-1.4-.3-.7-.8-1.7-1.3-3-1.9-5.2-.8-3.2-1.5-4.6,0,0,0,0,0,0,.2-.7.2-1.2-.3-1.8-1.1-10.7-.2-8.7-.8-10.8,0-.5,0-.9,0-1.4.3-6.4-.2-5.8.4-8.2.6-.4.2-1.5.6-1.9,0-.3,0-.7,0-1,.7-1.7,1.2-3.5,1.6-5.3,0,0,0,0-.1-.1,0-.1,0-.3-.2-.4.7-.4,1.2-2.2,2.7-6.7,0,0,0,0,0,0,1.5-1.3,5-7.8,6.4-8.3-.3-.3,1.8-.7,1.4-2.1.6,0,1.1-.3,1.6-1.4.7-.4,1.3-1,1.8-1.7.2-.8.9-.5,2.6-2.3.2,0,.3-.2.4-.3,0,0,0,0,0,0,0,0,0,0,0,0h0c.3,0,.6-.3.8-.6.3,0,.5-.2.6-.4,0,0,0,0,0,0,.2-.1.4-.2.5-.4h0c.3,0,.4-.2.4-.3t0,0c.2,0,.3-.2.3-.3h0c1.1-.8,2.2-1.7,3.5-2.3.7-.4,1.3-.8,1.8-1.4,0,0,0,0,0,0h0c.2,0,.4-.1.4-.3.2,0,.4-.2.5-.4.2,0,.5,0,.7-.3.2,0,.2,0,.2-.1,0,0,0,0,0,0,.5,0,.8-.4,1.1-.7.2,0,.4-.1.5-.3,0,0,.2,0,.2,0,.2,0,.4,0,.5-.3,0,0,0,0-.1,0,1.4-.8,3.4,0,4.2-1.2.1,0,.2,0,.3,0,8.3-2.5,9-1.6,9.6-2.2,2.8.2,5.9.8,8.1,0,0,0,0,0,0,0-.4.3.5,1,.9,1,2.2.3,4.3,1.1,6.6,1.2h0c.9,1.1,2.2,1.6,3.6,1.6,0,.1.2.2.4.3,0,0,0,0,.2,0,0,.1.3.2.6.3,0,0,0,0,0,0-.1,0,0,.3.3.3h0c.1.4.3.6.7.7,0,0,0,0,0,0,.1,0,.2.1.3.1,0,.2.2.3.4.3,0,0,0,0,0,0,1.3.8,3.4,1.4,3.6,1.6.2.2.3.5.5.5,1.8.6,3.8,3.1,4.6,3.5,0,.5.3.7.6.9.9.5.6,1,2.2,1.1.3,0,.6,0,.8.1,0,0,0,0,.1,0,0,.7.4,1.6.8,1.8-.1.3,0,1,.7,1.4h0c.1.2.2.4.4.7.5.8.9,1.7,1.4,2.5,0,.7.2.8.3.6,0,0,0,.1,0,.2,0,0,0,0,0,0,0,1.1.3,2.1,1,2.9.1.5,0,1.1.4,1.5,0,.2,1.8,4.1,2.8,10.7h0c0,2.4.4,4.8.8,7.1,0,.2,0,.3,0,.4,0,0,0,0,0,0v.3c-.3,0-.5.2,0,.6,0,4.5,0,5.4.3,5.6-.2.3,0,1.2-.1,1.5-.4,1.2-.3,2.6-.2,3.9h0c-.7,1-.6,2.2-1.1,3.2-.4.2-.4.6-.3,1-.2.2-.4.5-.5.7-1.3,4.2-3.1,6.4-2.7,6.5,0,0,0,0,0,.1,0,0,0,0,0-.1-.4.2-.7.6-.7,1.1,0,0,0,0,0,0-.6,1-1.2,2.2-1.8,3.4h0c-.5.2-3.6,4.2-4.9,6.6,0-.2-.3,0-1.4,1.5,0,.1,0,.3,0,.5,0,0,0,0,0,0,0,0-.1.2-.2.3-.2,0-.3.2-.3.4-.2,0-.3.2-.3.4-.7,0-1.1.5-1.4,1.1-3.6,2.7-5.3,3.9-6,4.8,0-.1-.3,0-.7.2-1.3.9-2.8,1.6-4.2,2.3-3.5,1.8-6,2.1-6.7,3.2,0,0,0,0,0,0,0-.2-.5,0-1.7.8h0c-.7-.2-4,.7-4.6.8-.3,0-.5.3-.8.6-.2,0-.3.1-.3.1-.2,0-.5,0-.7,0,0,0,0,0,0,0-4.5-1.7-4,.6-10.1.4-.1,0-.2,0-.3,0h0s0,0,0,0c0-.2-.1-.3-.9-.3-1.6,0-3.4-.1-4.5,0,0,0,0,0,0,0-.9,0-2,.2-2.8-.2ZM113.1,79.7c0,0,0,.1,0,.2,0,0,0-.1,0-.2,0,0,0,0,0,0ZM107.3,106.6s0,0,0,0c0,0,0,0,0,0,0,0,0,0,0,0ZM99.5,114.1s0,0,0,0c0,0,0,0,0,0,0,0,0,0,0,0ZM98.7,105.2s0,0,0,0c0,0,0,0,0,0,0,0,0,0,0,0ZM91.6,120.3s0,0,0,0c0,0,0,0,0,0,0,0,0,0,0,0ZM91.2,113c0,0,0,.1,0,.2,0,0,0,0,0-.1,0,0,0,0,.1,0ZM86.1,115.7s0,0,0,0c0,0,0,0,0,0,0,0,0,0,0,0ZM70.3,123h0c0,0-.1,0-.2-.1h0c0,0,.2,0,.3.1ZM54.2,123.6s0,0,0,0c0,0,0,0,0,0,0,0,0,0,0,0ZM86.7,133.5s0,0,0,0c0,0,0,0,0,0s0,0,0,0h0s0,0,0,0c0,0,0,0,0,0ZM113.6,126s0,0,0-.1c0,0,.1,0,0,.1ZM120.7,107.8c0,0,0,.1-.1.2-.2,0-.2.2-.3.4,0,0-.1.2-.2.2-.3.1-.5.3-.5.6-.2.3-.5.6-.8.9-1.3,1.1-3.4,5.1-5.8,7.4-.6.6-.6,1.1-.6,1.5-1.4.2-1.9,1.3-2.6,2.4,0,0,0,0,0,0-1,0-1.1.7-1.2,1.6-.3-.4-.8-.5-1.3,0-1.7,1.5-4.4,2.5-5.2,4.1-.5.2-.8.5-1.2.8,0,0,0,0-.1,0,0,0,0,0,0,0-1.5-.5-2.2.7-3.2,1.3,0,0,0,0,0,0-1.2-.3-3.7,1.1-5.9,1.6-.7.2-1,.6-1.2,1.1-.2,0-.4.1-.5.3,0,0,0,0,0,0,0,0,0-.1-.1-.2-1.2-.5-2.4.1-2.9.9,0,0-.2,0-.2,0,0,0,0,0,0,0,0,0-.2,0-.2,0-.1,0-.2,0-.4-.1-.7,0-1.4,0-1.8.7,0,0,0,0,0,0,0,0,0-.2-.2-.2-1.5-.2-2.8.2-4.1.9-.7-.8-3.1-1.2-4.9-.4-.1,0-.3-.1-.4-.1-.2-.1-.5-.1-1-.1-.2,0-.4-.1-.6-.3-1-.9-1.5-.8-1.8-.4-.3-.5-.8-.6-1.4-.6,0,0,0,0,0,0-.2,0-.3,0-.5,0-.5-.8-1.4-1.2-2.3-.9,0,0,0,0,0,.1-.2-.6-.6-.9-1.3-.9,0,0-.1,0-.2.1-1.3-1-2.4-1.2-2.8-1,0,0,0,0,0,0h0c-.3-.3-.6-.5-.9-.6-.3-.1-.6-.2-.8-.2-.3-.4-.7-.6-1-1-1.1-1.4-2-1.5-2.3-1.1-.8-1.2-2.1-1.6-3.3-2.2.3,0,.6,0,1-.1,0,1,.9.2,1.5.7.2.2.5.4.8.5.7,0,1.1.6,1.7.5.2,0,.5,0,.7,0,.7.5,1.5,0,2.2.4.8.3,2.1.4,3.6.3,0,0,0,0,0,0,3.5.8,5.6,1.4,6.9,1.6.7.5,2.7.1,3.1-.2.8.2,5-.1,5.5-.2,15.3-2.2,13.2-3.2,17.8-4.5,1.1-.3,2.1-.8,2.9-1.6-.2,0-.3,0-.5-.1,1.8-.3,3.2-.8,3.8-2,.6,0,1.1-.5,1.8-.4.4-.4.6-.6.6-.7.3,0,.7-.2,1.2-.4.4.3.3-.3.7-.4.6-.2,1-.6,1.4-1.1.1-.4.5-.3.7-.7.4-.3.4,0,.4-.7,1.2,0,.8-1.1,1.8-1.4.4.4.2-.4,1.1-.4.3-.2.5-.4.3-.7h0c.5,0,.4.1.4-.6.1,0,.2-.1.4-.2,0,0,.1-.2.1-.3.3,0,.2,0,.2-.4.5,0,1.1-.3,1.1-1.1,0-.2,0-.3,0-.3.3,0,.3,0,.3-.2.1,0,.3,0,.3-.2,0-.3,1.2-.3,1.1-1.1.4-.8,1.3-1.1,1.7-1.6,0,.2,0,.4,0,.6ZM121.8,105.9s0,0,0,0c-.2,0-.3,0-.5.2h0c0-.2.2-.3.3-.4,0,0,0,0,0,0,0,0,0,0,0,.1,0,0,.1.1.2.2,0,0,0,0,0,0ZM122.1,28.1s0,0,0,0c0,0,0,0,.1,0,0,0,0,0-.1,0ZM122.5,104.4s0,0,0,0c0,0,0,0,0,0,0,0,0,0,0,0ZM131.8,82.2s0,0,0,0c0,0,0,0,0,0,0,0,0,0,0,0ZM131.5,91.8c0,0,.2,0,.2.2,0,0-.1,0-.2,0h0ZM126.1,40.2h0s0,0,0,0h0ZM132.3,35.2s0,0,0,0c0,0,0,0,0,0,0,0,0,0,0,0ZM132.5,41.3s0,0-.1-.1c0,0,0,0,.2,0,0,0,0,0,0,.1ZM135.8,32.3s0,0,0,0c0,0,0,0,0,0h0,0s0,0,0,0ZM142.7,37.3s0,0,0,0h0s0,0,0,0ZM143.4,36.2s0,0,0,0c0,0,0,0,0,0,0,0,0,0,.1,0,0,0,0,0,0,.2ZM143.7,31.5s0,0,0-.1c0,0,0,0,0,.1h0ZM149.7,25.8s0,0,0,0c0,0,0,0,0,0,0,0,0,0,0,0ZM157,21.5s0,0,0,0c0,0,0,0,0,0h0ZM157.4,34.2s0,0,0,0c0,0,0,0,0,0,0,0,0,0,0,0ZM159.2,25.9h0s0,0,0,0h0ZM163.1,23.3s0,0,0,0h0s0,0,0,0ZM163.1,17.6s0,0,0,0c0,0,0,0,0,0,0,0,0,0,0,0ZM163.5,17.6h0s0,0,0,0h0s0,0,0,0c0,0,0,0,0,0ZM164.2,22.3s0,0,0,0c0,0,0,0,0,0,0,0,0,0,0,0ZM165.6,31.9s0,0,0,0c0,0,0,0,0,0,0,0,0,0,0,0,0,0,0,0,0,0ZM165.7,21.2h0s0,0,0,0c0,0,0,0,0,0,0,0,0,0,0,0,0,0,0,0,0,0h0ZM169.2,17.6c0,0,0,0-.1,0,0,0,0,0,.1,0v.2ZM173.5,26.5s0,0,0,0c0,0,0,0,0,0h0ZM175.3,25.9s0,0,0,0h0s0,0,0,0Z"/>
  <path class="cls-2" d="M113.2,75.9c-.4,1.2-.3,2.6-.2,3.9h0c-.7,1-.6,2.2-1.1,3.2-.4.2-.4.6-.3,1-.2.2-.4.5-.5.7-1.3,4.2-3.1,6.4-2.7,6.5,0,0,0,0,0,.1,0,0,0,0,0-.1-.4.2-.7.6-.7,1.1,0,0,0,0,0,0-.6,1-1.2,2.2-1.8,3.4h0c-.5.2-3.6,4.2-4.9,6.6,0-.2-.3,0-1.4,1.5,0,.1,0,.3,0,.5,0,0,0,0,0,0,0,0-.1.2-.2.3-.2,0-.3.2-.3.4-.2,0-.3.2-.3.4-.7,0-1.1.5-1.4,1.1-3.6,2.7-5.3,3.9-6,4.8,0-.1-.3,0-.7.2-1.3.9-2.8,1.6-4.2,2.3-3.5,1.8-6,2.1-6.7,3.2,0,0,0,0,0,0,0-.2-.5,0-1.7.8h0c-.7-.2-4,.7-4.6.8-.3,0-.5.3-.8.6-.2,0-.3.1-.3.1-.2,0-.5,0-.7,0,0,0,0,0,0,0-4.5-1.7-4,.6-10.1.4-.1,0-.2,0-.3,0h0s0,0,0,0c0-.2-.1-.3-.9-.3-1.6,0-3.4-.1-4.5,0,0,0,0,0,0,0-.9,0-2,.2-2.8-.2-1.6-.8-2.5-.2-3-.8-.2-.4-.7-.6-.9-1.1-.4-1.2-1.4-1.9-2.6-2.3,0,0-.1,0-.2,0-.1-.2-.3-.4-.5-.6-.7-.8-1.6-1.2-2.3-1.9-.7-.7-1.4-1-2.2-1.1-.1,0-.2-.1-.3-.2-1.4-.7-2.7-1.5-4-2.5,0-.2,0-.5-.2-.6-.9-.6-1.7-1.2-2.7-1.7-1-1.5-2.1-3.3-3-4.5,0-.2,0-.5,0-.7-.8-.3-.6-1.3-1.4-1.5-.2-.3-.4-.8-.8-1.4-.3-.7-.8-1.7-1.3-3-1.9-5.2-.8-3.2-1.5-4.6,0,0,0,0,0,0,.2-.7.2-1.2-.3-1.8-1.1-10.7-.2-8.7-.8-10.8,0-.5,0-.9,0-1.4.3-6.4-.2-5.8.4-8.2.6-.4.2-1.5.6-1.9,0-.3,0-.7,0-1,.7-1.7,1.2-3.5,1.6-5.3,0,0,0,0-.1-.1,0-.1,0-.3-.2-.4.7-.4,1.2-2.2,2.7-6.7,0,0,0,0,0,0,1.5-1.3,5-7.8,6.4-8.3-.3-.3,1.8-.7,1.4-2.1.6,0,1.1-.3,1.6-1.4.7-.4,1.3-1,1.8-1.7.2-.8.9-.5,2.6-2.3.2,0,.3-.2.4-.3,0,0,0,0,0,0,0,0,0,0,0,0h0c.3,0,.6-.3.8-.6.3,0,.5-.2.6-.4,0,0,0,0,0,0,.2-.1.4-.2.5-.4h0c.3,0,.4-.2.4-.3t0,0c.2,0,.3-.2.3-.3h0c1.1-.8,2.2-1.7,3.5-2.3.7-.4,1.3-.8,1.8-1.4,0,0,0,0,0,0h0c.2,0,.4-.1.4-.3.2,0,.4-.2.5-.4.2,0,.5,0,.7-.3.2,0,.2,0,.2-.1,0,0,0,0,0,0,.5,0,.8-.4,1.1-.7.2,0,.4-.1.5-.3,0,0,.2,0,.2,0,.2,0,.4,0,.5-.3,0,0,0,0-.1,0,1.4-.8,3.4,0,4.2-1.2.1,0,.2,0,.3,0,8.3-2.5,9-1.6,9.6-2.2,2.8.2,5.9.8,8.1,0,0,0,0,0,0,0-.4.3.5,1,.9,1,2.2.3,4.3,1.1,6.6,1.2h0c.9,1.1,2.2,1.6,3.6,1.6,0,.1.2.2.4.3,0,0,0,0,.2,0,0,.1.3.2.6.3,0,0,0,0,0,0-.1,0,0,.3.3.3h0c.1.4.3.6.7.7,0,0,0,0,0,0,.1,0,.2.1.3.1,0,.2.2.3.4.3,0,0,0,0,0,0,1.3.8,3.4,1.4,3.6,1.6.2.2.3.5.5.5,1.8.6,3.8,3.1,4.6,3.5,0,.5.3.7.6.9.9.5.6,1,2.2,1.1.3,0,.6,0,.8.1,0,0,0,0,.1,0,0,.7.4,1.6.8,1.8-.1.3,0,1,.7,1.4h0c.1.2.2.4.4.7.5.8.9,1.7,1.4,2.5,0,.7.2.8.3.6,0,0,0,.1,0,.2,0,0,0,0,0,0,0,1.1.3,2.1,1,2.9.1.5,0,1.1.4,1.5,0,.2,1.8,4.1,2.8,10.7h0c0,2.4.4,4.8.8,7.1,0,.2,0,.3,0,.4,0,0,0,0,0,0v.3c-.3,0-.5.2,0,.6,0,4.5,0,5.4.3,5.6-.2.3,0,1.2-.1,1.5Z"/>
</svg>