<svg id="Livello_1" data-name="Livello 1" xmlns="http://www.w3.org/2000/svg" viewBox="0 0 92.85 86.43">
  <defs>
    <style>
      .cls-1 {
      fill: #ebaa00;
      }

      .cls-1, .cls-2 {
      stroke-width: 0px;
      }

      .cls-2 {
      fill: #8f1a37;
      }
    </style>
  </defs>
  <path class="cls-2" d="M82.17,18.95c-6.71-15.03-29.89-14.3-35.8.8C37.59,1.35,8.32,7.97,8.65,28.69c-.04,11.38,9.69,20.57,21.05,19.89-7.93,12.5,1.98,30.21,16.92,29.79,15.66.49,25.42-18.91,15.99-31.2,14.83,1.79,26.46-14.91,19.56-28.22ZM44.14,34.09s.02-.02.03-.02c1.64-1.31,3.46-1.26,4.92-.48,1.5.61,2.67,1.93,2.76,3.97.08.65.01,1.3-.23,1.95-.02.03-.03.07-.04.11-.24.6-.64,1.19-1.22,1.72-.13.12-.26.23-.39.33-.01,0-.02.02-.04.02-1.69,1.31-3.54,1.22-5,.38t-.02-.01c-1.44-.63-2.54-1.93-2.61-3.91v-.03c-.07-.66.01-1.34.27-2,.29-.72.79-1.42,1.57-2.03ZM26.73,44.27c-.36,0-.71-.01-1.05-.03-4.6-.24-8.25-2.35-10.72-5.38-.04-.04-.08-.09-.11-.14-5.19-6.49-5.06-17.07,2.53-22.53.06-.04.12-.08.18-.12.65-.47,1.36-.89,2.13-1.27,4.82-2.54,9.76-2.17,13.79-.06.02.01.03.01.04.02,4.28,2.24,7.54,6.45,8.54,11.19,0,.02,0,.04.01.06.76,3.71.14,7.74-2.45,11.42-3.07-9.76-15.43.8-6.25,5.35-2.02.95-4.27,1.49-6.64,1.49ZM62.13,62.52c-.01.18-.03.35-.05.52-.11.98-.33,1.95-.65,2.88-.38,1.28-.9,2.44-1.53,3.49-.06.11-.14.21-.21.32-2.51,3.94-6.7,6.15-11.12,6.65-.12.02-.24.03-.36.04-.17.02-.34.04-.51.05-4.32.27-8.75-1.08-11.94-4.06-.02-.02-.04-.03-.05-.05-1.76-1.66-3.14-3.81-3.91-6.47-3.47-9.97,4.89-20.89,15.23-20.34-3.52,6.76,7.65,10.77,9.27,3.37,1.13.86,2.13,1.9,2.96,3.09.17.26.35.51.51.78,1.39,2.25,2.24,4.9,2.39,7.58.01.12.02.25.02.37v.43c.02.45,0,.9-.05,1.35ZM59.97,42.66s-.09-.04-.13-.06c-3.79-1.77-6.79-5.05-8.15-9.06-.01-.03-.02-.06-.03-.09-.06-.17-.12-.34-.16-.52-.08-.25-.14-.49-.2-.73,8.62,3.31,9.24-11.28.39-8.74,3.12-10.72,18.68-14.16,26.04-5.67,2.59,2.54,3.91,5.73,4.17,8.99.01.01.01.02,0,.03.41,5.12-1.77,10.43-5.66,13.79-.02.02-.03.03-.05.04-2.59,2.21-5.93,3.56-9.76,3.43-2.28.01-4.47-.5-6.46-1.41Z"/>
  <path class="cls-1" d="M51.62,39.51s-.03.07-.04.11c-.24.6-.64,1.19-1.22,1.72-.13.12-.26.23-.39.33-.01,0-.02.02-.04.02-1.69,1.31-3.54,1.22-5,.38t-.02-.01c-1.44-.63-2.54-1.93-2.61-3.91v-.03c-.07-.66.01-1.34.27-2,.29-.72.79-1.42,1.57-2.03.01-.01.02-.02.03-.02,1.64-1.31,3.46-1.26,4.92-.48,1.5.61,2.67,1.93,2.76,3.97.08.65.01,1.3-.23,1.95Z"/>
  <path class="cls-1" d="M62.13,62.52c-.01.18-.03.35-.05.52-.11.98-.33,1.95-.65,2.88-.38,1.28-.9,2.44-1.53,3.49-.06.11-.14.21-.21.32-2.51,3.94-6.7,6.15-11.12,6.65-.12.02-.24.03-.36.04-.17.02-.34.04-.51.05-4.32.27-8.75-1.08-11.94-4.06-.02-.02-.04-.03-.05-.05-1.76-1.66-3.14-3.81-3.91-6.47-3.47-9.97,4.89-20.89,15.23-20.34-3.52,6.76,7.65,10.77,9.27,3.37,1.13.86,2.13,1.9,2.96,3.09.17.26.35.51.51.78,1.39,2.25,2.24,4.9,2.39,7.58.01.12.02.25.02.37v.43c.02.45,0,.9-.05,1.35Z"/>
  <path class="cls-1" d="M76.24,40.6s-.03.03-.05.04c-2.59,2.21-5.93,3.56-9.76,3.43-2.28.01-4.47-.5-6.46-1.41-.04-.02-.09-.04-.13-.06-3.79-1.77-6.79-5.05-8.15-9.06-.01-.03-.02-.06-.03-.09-.06-.17-.12-.34-.16-.52-.08-.25-.14-.49-.2-.73,8.62,3.31,9.24-11.28.39-8.74,3.12-10.72,18.68-14.16,26.04-5.67,2.59,2.54,3.91,5.73,4.17,8.99.01.01.01.02,0,.03.41,5.12-1.77,10.43-5.66,13.79Z"/>
  <path class="cls-1" d="M39.62,37.43c-3.07-9.76-15.43.8-6.25,5.35-2.02.95-4.27,1.49-6.64,1.49-.36,0-.71-.01-1.05-.03-4.6-.24-8.25-2.35-10.72-5.38-.04-.04-.08-.09-.11-.14-5.19-6.49-5.06-17.07,2.53-22.53.06-.04.12-.08.18-.12.65-.47,1.36-.89,2.13-1.27,4.82-2.54,9.76-2.17,13.79-.06.02.01.03.01.04.02,4.28,2.24,7.54,6.45,8.54,11.19,0,.02,0,.04.01.06.76,3.71.14,7.74-2.45,11.42Z"/>
</svg>
