<?xml version="1.0" encoding="UTF-8"?>
<svg id="Livello_1" data-name="Livello 1" xmlns="http://www.w3.org/2000/svg" version="1.1" viewBox="0 0 141.7 141.7">
  <defs>
    <style>
      .cls-1 {
        fill: #851d3a;
      }

      .cls-1, .cls-2 {
        stroke-width: 0px;
      }

      .cls-2 {
        fill: #dabe39;
      }
    </style>
  </defs>
  <path class="cls-1" d="M191.2,14.8c-1.1-1.5-2.9-.4-4.3-1-1.3-.5-1.8.2-3,.2-5.1-.3-11.4,4.7-14.2,3.3-.2-.6,0-1.4-.5-1.5-.4-1.4-1.5-1.6-2.8-1.7-.4.3-.8.6-1.2.9-.4,0-.6.3-.6.5h0c-.4.2-.5.6-.7,1-.2,0-.4,0-.5.3h0q0,.1-.1.1c0,.1,0,.2-.1.4-.2-.2-1,.1-1.4.6h0c-.5.2-1.1.6-1.6,1h0c-.6,0-2.1.3-2.9,1.1-.3.3-.6.5-1,.8-.2.8-.8.7-1.5,1.4-.2,0-.3,0-.4.2h0s-.2,0-.4.2c-.1,0-.2,0-.2.2-.5,0-.3,0-.4.4h0c-.3.1-.7.3-1.4.7-.3.2-.5.1-.5.4-.2,0-.3,0-.4.1-.3,0-.8.2-1.1.5-1.1-.4-1.3-1.1-3.5-.6-4.1,1.1-3.1.5-3.5,1h.1c-1.4.1-1.9,1.2-3,1.3-.9.1-1.8-.1-2.7.1-1,.3-4.9.6-6,0v-.7c-.1-.1-.2-.2-.4-.4h-1c-.2-.2-.5-.4-.7-.5,0-.2-.1-.3-.3-.4-.1,0-.2-.2-.4-.3v-.3c-1.4-.2-1.3-.2-1.1-1.5h0v-.9c-.9.1-.9.2-1,1,0,.4.5.7,0,1.1-.8.9-.7-.5-1.2-.7v-.7c-.2-.5-.4-.4-.7,0v.4c0,.3.2,1,.5,1,0,.6.2,1.6.8,2.1.2.2,0,.5-.3.7-.8-.2-.8-.9-1.1-1.5-.3-.7-.8-.4-.9-.1-.3.1-.3.2,0,.4-.6,1.2-1.7,1.1-1.1,1.5v.3c-.3,0-.5,0-.7.3h0c-1.1.3-2-.7-2.1-.7h0c0-.3,0-.6-.4-.7h0v-.4c-.5,0-1.1-.2-1.4.4h0c-.4.3-.7.8-.9,1.1h0c-.2,0-.3.2-.5.3h-.7q0-.1,0-.1c-1-1-2-1.9-3.1-2.9,0-.1,0-.2,0,0,0,0-.2-.2-.3-.3v-.4c0-.5-.2-.7-.6-.7-.2-.1-.3-.3-.5-.4,0-.2-.2-.3-.3-.3,0-.2-.2-.3-.4-.4-.5-.9-1-1.1-2.9-2.5-1.6-.4-4.4-2.6-5.8-3.3,0-.2-.3-.4-.4-.6-.8-.6-4.1-2.8-6.1-3.2-.3-1.2-1.8-1.1-2.4-1.9-1.8,0-4-1.6-5.8-1.9-.4-.4-1.4-.4-5.1-1.6-2.5-.8-4.1-1.1-5.2-1.2,0-.8-.6-1.3-1.6-1.7-.2.6-.3,1.1.2,1.6h0c-.6,0-1,0-1.6-.4-.5-.5-1.6-.2-2.8-.7-.3,0-.6,0-.8.3-.7,0-1.5.3-2.5,0-1.1-.4-2.2-.2-3.3-.3-.2-.3-.4-.3-.8-.3h-3.6c-.6,0-3.2-.2-3.6.3h0c-.2,0-1.5.4-3.5.4s-1.3.2-1.9.4h-1.4c-2.9.6-7,1.5-9.1,3.6-.9.9-2.6.7-3.4,1.5-1.8,1.7-1.2-.2-3,1.6h0c-1.5.1-1.3.8-2.5,1.5-.4,0-.4.4-.4.7-3,.9-4.5,4-6.4,4s-.8,0-1.1.4c-.9.1-1.2,1.1-2,1.1-.2.5-.3,1-.5,1.4-.2.2-.3.3-.3.4-.3-.2-1.6.2-1.9.3-2.5.1-2.3,2.4-3.8,3.3-.5.4-1.2,1.4-1.4,2.2h0c-1.5.8.4,2.6-.1,3.4-.5.6-1-.3-1.6.1v1.9c-.4.7-.5,1.4,0,2.2-.6.7-1.3,0-1.8,0-1.1,1.5-.3,4-1,4.1-1.5,0-2.4-.7-2.5,2.2.5.3.3.7.4,1.1h0v1c-1.1,0-1.5,1.3-.3,1.8.6.3.9.3,1,.4,0,0,.2.2.3.3,0,2.9-2,2.7-2.5,3.2-.4,0-.7.2-.9.4-.5,0-1,0-1.5.3-.2.6-.3,1.9.6,2.2.6.5,1.4.7,1.8,1.5.2.2.5.2.7.2,0,.6.3,0,.3.9.5.2.8.7,1.4.7,1.3,0,2.7-.8,2.9-2.3.1-1.1.5-2.1.9-3.1.6-1.5.4-1.2.2-4.3.5-.7.7-1.6.7-4.7.2,0,.5,0,.9-.7.4-.9-.2-3.9,4.1-5.8,1-.5,1.8-1.2,2.8-1.6,4-1.8,2.5-4.8,4.3-6.5,9.4-9,12.7-3.5,18.4-6.5.4-.4,1.4-.4,1-1.2h0c.4.4,1,.3,1.5.1.4-.2.7-.3,1.1-.5-.3.8-1.2,1.1-1.6,1.9,0,.4.2.9,0,1.3h0c-.4.3-.7.5-.9.8v-.2c-.8,0-1.9.6-2.6.9h0c-.2,0-.3,0-.4.3h0c-.2,0-.7.3-1,.5h0c-.2,0-.3,0-.4.3h0c-.3,0-.6,0-.7.4-.6.2-1.1.8-1.7.8-2.6,2.2-3.2,2.6-3.3,2.8h0c-.2,0-.3.2-.4.4-.2,0-.3.2-.3.4-1.8,1.4-4.8,4.6-5.8,6.2-.1,0-.2,0-.2.2h0c0,.2-.1.3-.2.4h0c-.2,0-.3.2-.3.4-.2,0-.3.2-.3.4-2.1,2.5-2.9,3.9-3.3,4.7-.2.2-.3.4-.4.7-.2,0-.3.2-.3.4-.6,1.1-1.5,2-1.8,3.2-.3,0-.4.4-.4.7-.2.3-.4.8-.8,1.4h0c-.6.5-1.3,1.8-1.4,2.5-.2.3-.6.7-.6,1-.2,1.7-1.4,4.2-1.7,5.4-.2.2-.3.4-.3.7-.2.3-.3.7-.2,1.1v.4h0c-.2.3-.5,1.2-.3,1.5-.1,0-.1,0-.8,2.4-.4.5-.4,1.8-.3,2.2h0v.7h0v.3h0c-.5.8,0,.7-.7,3.6-.3.5-.4,1.3-.3,2.3-1.4.3-3.2.8-5.6.5,0,0-.2,0-.4.2,0-.4-.6-.8-1.8-.8h-.3c0,0,0,0-.4-.5h0v-.3c-.3,0-.6,0-.7.3h-.7c-.5-.6-.7-.2-1,.2.5.6.2.4,1,.9h.7c0,0,.2.2.3.3h0c0,0,.2.3.3.4h0c.3.5.5,1,.8,1.1,0,.7,1.4,1.3,1.1,3.2h-.4c-1.4,0-1.7.6-1.2,1.8,0,.3.2.6.5.7-.3.7-.2,1.3.4,1.8,0,1.5.5.7,1.2,2.7.9,2.4,1,5.8,2.4,6.6,0,1.2.2,2.2,1.1,3.1.2.2.3.4.3.6,0,.8.7,1.5,1.3,1.6,0,0-.1.2-.1.4.1.3.7,1.8.7,1.4.6,0,.5,0,3.9,4.3.6.9.9,2,2.2,2.2h0c.3.5.4,1.1,1.1,1.2.1,0,.2.4.4.6v.3c.5.2.7.9,1.4.8h0s.1.3.4.7c.3.6.7,1,1.2,1.3,1,1.7,2.1,3.3,3.9,4.4q1.2.7,0,0h0c0,.5.3.7.7.8,1.2,1.6,1.6,1.9,1.8,1.7.2.6.7,1.2,1.1,1.4.4.7,1.2.9,1.8,1.4,1.2,1.4,3,1.9,4.3,3.2h.3c0,.2,0,.3.3.3s0,0,0,0c1.2,1.7,3.5,2.3,6.3,4.8.4.4.9.7,1.6.7,1.2,1,2.4,1.7,3.8,2.2,1.6.6,2.4,1,2.7,1h0c.6.6,1.4.5,2.2.7,0,.3.5.4.7.3h0c.4.9,1.4.8,2.1,1.1.4.4,1,.3,1.5.3.4.5,1,.3,1.5.3h0c0,.2.4.3.7.4.3.6,2.5.3,3.9.4.3.4.7.3,1.1.3h0v.3c.2.2.8.2,1.4.2v.2c.5,0,0,.2.7-.3h0c.7.3,2.4.4,3.8.4h1.9c1,.8,1.1.4,6.1,0,1.8.8.5,0,2.9,0s.6,0,.7-.3h2.2c.6.2,1.3,0,2,0s1.4.2,2-.5h1.4c.5,0,1,.2,1.4-.2,1,0,2.3-.4,3-.8h.3c.8,0,1.5,0,2.2-.4h0c.9-.2,2-.6,2.9-1.1h.2c.6,0,1.1-.3,1.6-.7h.3c.8.4,1-.1,1-.4.2,0,.3,0,.4-.2.8-.3,1,0,1.9-.8h0c.4,0,.6-.1.7-.4.5-.1.7-.8,1.4-.6.2,0,.4-.2.5-.4l.3-.3h0q.2,0,.2-.1t0,0c1.2,0,1.6-.4,1.4-.6.5-.2.9-.5,1.1-.8h0c0,.2.5.2,1.2-.6.3,0,.6-.2.7-.4.2,0,.4,0,.5-.3.8-.3,2.3-.7,3.2-2.5,2-1.4,3.6-3.3,4.9-5.4.2,0,.3-.2.3-.4h0c.8-.9,2.8-3.2,3.3-5,.4-.2,1.2-1.7,2.1-3.6.6-.6,1-1.3,1-2.2,0,0,0,0-.1.2.6-1.5,1.1-3,1.6-4.5h0c.5,0,.8-.5.7-1v-1.1c0-.2.1-.7.2-1.1.2-.2.2-.4.2-.7.2,0,.2,0,.2-.2s0,0-.2-.2c0-.4.2-.7.4-1.1.6-.5.2-1.2.3-1.8v-.8c.4-.5.3-3.4.2-4.3v-.7h0c.7-.4.1-2.6.4-5.7.1-1.6-.5-3.2,0-4.9.2-.8-.2.8-.5-2.6.2-.3.2-.7,0-1,0-.7.4-1.3.2-1.9-.5-1.6,0-3.4-.4-4,0-.4,0-1-.2-1.8v-1.3c1-2.1-1.5-3.1-.7-6,0-1-1-1.4-1-2.2.3-.9.4.4-.5-3.4,0-.4,0-1-.6-1.3-.5-3.9-1.9-7.1-3.2-9.7.5-.2,1.2-.5,2-.8h0s.2,0,1,0c.3.4.7.3,1.1.3h.4c.1,0,.2.2.3,0,.2.3.5.3.8.3,0,0,.2,0,.3,0,.2.3-.3.3,2.7.4.2,0,.4,0,.6.3.7,0,1.2.4,1.9.5,3.8.8,1.6-.8,3.8-1.9,5.1,0,9.9-3.4,11.8-3.3v-.3h0c2.3.2,1.6-1.1,3.9-1.1.6-.6.9-.3,1.1-.7h-.2c.2,0,.3,0,.2,0h.7c.2,0,.3-.2.4-.3,1,.2,3.4-1.3,4.3-1.8,2.3-.8,2.2-.3,5.4-2.1.6,0,1.1,0,1.7-.4,1.3-1,3.1-1.1,4.4-2.1.2-.2.7,0,1,0,.4-.5.7-1,1.1-1.4.5,0,.9-.2,1.1-.7h.4c.4-.5,1.2-.7,1.4-1.4h.3c6.7-7,6.6-5.1,8.1-6.7.2,0,.3,0,.5-.1,1.2-1.2,1.7-1.2,2.7-2.8.8-1.3.8-1.4,0-2.5v-.5ZM16.2,28.1h0ZM6.4,79.5h0ZM10,90.7h0ZM11.5,87.7h0ZM12.6,95.7h0q0,0,0,0h0ZM15.5,66.5h0ZM18.7,99.4h0ZM22.8,73.4h0ZM23.5,50.9h.1-.1ZM118.1,77.1h0ZM116.6,88.3h0ZM106.6,39.5v.2h0c0,0,0-.2,0-.2ZM104.4,38.1h0ZM90.2,14.8h-.2s-.2-.1-.2-.2h.4v.2ZM84.3,11.3h0c0,0,.2.2.3.3-.3,0-.5-.1-.3-.2h0ZM81.1,10.1h0ZM72.9,20.3h0q0,.1,0,.1h0ZM71.8,6.5h0ZM70.6,7.3h.2s-.2,0-.3.2v-.2h.1ZM65.7,14.5s-.2,0-.3.1c-.3,0-1.2,0-2.5.4-.5-.1-1-.2-1.5-.3,1.8-.1,3.2-.2,4.3-.2ZM65.5,21.2h0ZM53,9h0ZM52.4,8.6h0ZM48.2,10.5h0ZM44.5,22.4c-.2.2-.3.4-.4.5,0-.3.2-.4.4-.5ZM42.5,31.5h0,0ZM35.5,41.1h0ZM34.3,28.4h0ZM30,49.4h.1-.1ZM25.3,56.2h.1c0,0-.1,0-.1,0ZM24.9,43.7h0ZM30,114.5h0ZM52.8,118.6c-1.6-.8-2.5-.2-3-.8-.2-.4-.7-.6-.9-1.1-.4-1.2-1.4-1.9-2.6-2.3h-.2c0-.2-.3-.4-.5-.6-.7-.8-1.6-1.2-2.3-1.9-.7-.7-1.4-1-2.2-1.1,0,0-.2,0-.3-.2-1.4-.7-2.7-1.5-4-2.5,0-.2,0-.5-.2-.6-.9-.6-1.7-1.2-2.7-1.7-1-1.5-2.1-3.3-3-4.5v-.7c-.8-.3-.6-1.3-1.4-1.5-.2-.3-.4-.8-.8-1.4-.3-.7-.8-1.7-1.3-3-1.9-5.2-.8-3.2-1.5-4.6h0c.2-.7.2-1.2-.3-1.8-1.1-10.7-.2-8.7-.8-10.8v-1.4c.3-6.4-.2-5.8.4-8.2.6-.4.2-1.5.6-1.9v-1c.7-1.7,1.2-3.5,1.6-5.3h-.1c0-.2,0-.4-.2-.5.7-.4,1.2-2.2,2.7-6.7h0c1.5-1.3,5-7.8,6.4-8.3-.3-.3,1.8-.7,1.4-2.1.6,0,1.1-.3,1.6-1.4.7-.4,1.3-1,1.8-1.7.2-.8.9-.5,2.6-2.3.2,0,.3-.2.4-.3h0c.3,0,.6-.3.8-.6.3,0,.5-.2.6-.4h0c.2,0,.4-.2.5-.4h0c.3,0,.4-.2.4-.3s0,0,0,0c.2,0,.3-.2.3-.3h0c1.1-.8,2.2-1.7,3.5-2.3.7-.4,1.3-.8,1.8-1.4h0c.2,0,.4-.1.4-.3.2,0,.4-.2.5-.4.2,0,.5,0,.7-.3q.2,0,.2-.1h0c.5,0,.8-.4,1.1-.7.2,0,.4-.1.5-.3h.2c.2,0,.4,0,.5-.3h0c1.4-.8,3.4,0,4.2-1.2h.3c8.3-2.5,9-1.6,9.6-2.2,2.8.2,5.9.8,8.1,0h0c-.4.3.5,1,.9,1,2.2.3,4.3,1.1,6.6,1.2h0c.9,1.1,2.2,1.6,3.6,1.6,0,.1.2.2.4.3h.2c0,.1.3.2.6.3h0c0,0,0,.3.3.3h0c0,.4.3.6.7.7h0c0,0,.2.1.3.1,0,.2.2.3.4.3h0c1.3.8,3.4,1.4,3.6,1.6s.3.5.5.5c1.8.6,3.8,3.1,4.6,3.5,0,.5.3.7.6.9.9.5.6,1,2.2,1.1.3,0,.6,0,.8,0h0c0,.7.4,1.6.8,1.8,0,.3,0,1,.7,1.4h0c0,.2.2.4.4.7.5.8.9,1.7,1.4,2.5,0,.7.2.8.3.6v.2h0c0,1.1.3,2.1,1,2.9,0,.5,0,1.1.4,1.5,0,.2,1.8,4.1,2.8,10.7h0c0,2.4.4,4.8.8,7.1v.4h0v.3c-.3,0-.5.2,0,.6,0,4.5,0,5.4.3,5.6-.2.3,0,1.2,0,1.5-.4,1.2-.3,2.6-.2,3.9h0c-.7,1-.6,2.2-1.1,3.2-.4.2-.4.6-.3,1-.2.2-.4.5-.5.7-1.3,4.2-3.1,6.4-2.7,6.5h0q0,0,0,0c-.4.2-.7.6-.7,1.1h0c-.6,1-1.2,2.2-1.8,3.4h0c-.5.2-3.6,4.2-4.9,6.6,0-.2-.3,0-1.4,1.5v.5h0s0,.2-.2.3c-.2,0-.3.2-.3.4-.2,0-.3.2-.3.4-.7,0-1.1.5-1.4,1.1-3.6,2.7-5.3,3.9-6,4.8,0,0-.3,0-.7.2-1.3.9-2.8,1.6-4.2,2.3-3.5,1.8-6,2.1-6.7,3.2h0c0-.2-.5,0-1.7.8h0c-.7-.2-4,.7-4.6.8-.3,0-.5.3-.8.6-.2,0-.3,0-.3,0h-.7c-4.5-1.7-4,.6-10.1.4h-.3c0-.2,0-.3-.9-.3-1.6,0-3.4,0-4.5,0h0c-.9,0-2,.2-2.8-.2l-.4-.9ZM113.1,79.7v.2-.2h0ZM107.3,106.6h0ZM99.5,114.1h0ZM98.7,105.2h0ZM91.6,120.3h0ZM91.2,113v.2h0q0,0,0,0h0ZM86.1,115.7h0ZM70.3,123h0s0,0-.2,0h0s.2,0,.3,0h-.1ZM54.2,123.6h0ZM86.7,133.5h0ZM113.6,126h0c0,0,0,0,0,0ZM120.7,107.8s0,0,0,.2c-.2,0-.2.2-.3.4,0,0,0,.2-.2.2-.3,0-.5.3-.5.6-.2.3-.5.6-.8.9-1.3,1.1-3.4,5.1-5.8,7.4-.6.6-.6,1.1-.6,1.5-1.4.2-1.9,1.3-2.6,2.4h0c-1,0-1.1.7-1.2,1.6-.3-.4-.8-.5-1.3,0-1.7,1.5-4.4,2.5-5.2,4.1-.5.2-.8.5-1.2.8h0c-1.5-.5-2.2.7-3.2,1.3h0c-1.2-.3-3.7,1.1-5.9,1.6-.7.2-1,.6-1.2,1.1-.2,0-.4.1-.5.3h0s0-.1,0-.2c-1.2-.5-2.4.1-2.9.9h-.4c0,0-.2,0-.4-.1-.7,0-1.4,0-1.8.7h0s0-.2-.2-.2c-1.5-.2-2.8.2-4.1.9-.7-.8-3.1-1.2-4.9-.4,0,0-.3-.1-.4-.1-.2-.1-.5-.1-1-.1s-.4-.1-.6-.3c-1-.9-1.5-.8-1.8-.4-.3-.5-.8-.6-1.4-.6h-.5c-.5-.8-1.4-1.2-2.3-.9h0c-.2-.5-.6-.8-1.3-.8,0,0,0,0-.2.1-1.3-1-2.4-1.2-2.8-1h0c-.3-.3-.6-.5-.9-.6-.3-.1-.6-.2-.8-.2-.3-.4-.7-.6-1-1-1.1-1.4-2-1.5-2.3-1.1-.8-1.2-2.1-1.6-3.3-2.2.3,0,.6,0,1,0,0,1,.9.2,1.5.7.2.2.5.4.8.5.7,0,1.1.6,1.7.5h.7c.7.5,1.5,0,2.2.4.8.3,2.1.4,3.6.3h0c3.5.8,5.6,1.4,6.9,1.6.7.5,2.7.1,3.1-.2.8.2,5-.1,5.5-.2,15.3-2.2,13.2-3.2,17.8-4.5,1.1-.3,2.1-.8,2.9-1.6-.2,0-.3,0-.5,0,1.8-.3,3.2-.8,3.8-2,.6,0,1.1-.5,1.8-.4.4-.4.6-.6.6-.7.3,0,.7-.2,1.2-.4.4.3.3-.3.7-.4.6-.2,1-.6,1.4-1.1,0-.4.5-.3.7-.7.4-.3.4,0,.4-.7,1.2,0,.8-1.1,1.8-1.4.4.4.2-.4,1.1-.4.3-.2.5-.4.3-.7h0c.5,0,.4,0,.4-.6,0,0,.2,0,.4-.2,0,0,0-.2,0-.3.3,0,.2,0,.2-.4.5,0,1.1-.3,1.1-1.1v-.3q.3,0,.3-.2c0,0,.3,0,.3-.2,0-.3,1.2-.3,1.1-1.1.4-.8,1.3-1.1,1.7-1.6v.6l-.5.2ZM121.8,105.9h0c-.2,0-.3,0-.5.2h0c0-.2.2-.3.3-.4h0c0,0,0,.2.2.3h0ZM122.1,28.1h0,0ZM122.5,104.4h0ZM131.8,82.2h0ZM131.5,91.8s.2,0,.2.2h-.2v-.2ZM126.1,40.2h0ZM132.3,35.2h0ZM132.5,41.3h-.1q0,0,.2,0h0c0,0,0,0,0,0ZM135.8,32.3h0ZM142.7,37.3h0ZM143.4,36.2h.1v.2-.2ZM143.7,31.5h0q0-.1,0,0h0ZM149.7,25.8h0ZM157,21.5h0ZM157.4,34.2h0ZM159.2,25.9h0ZM163.1,23.3h0ZM163.1,17.6h0ZM163.5,17.6h0ZM164.2,22.3h0ZM165.6,31.9h0ZM165.7,21.2h0ZM169.2,17.6h-.1.1v.2-.2ZM173.5,26.5h0ZM175.3,25.9h0Z"/>
  <path class="cls-2" d="M113.2,75.9c-.4,1.2-.3,2.6-.2,3.9h0c-.7,1-.6,2.2-1.1,3.2-.4.2-.4.6-.3,1-.2.2-.4.5-.5.7-1.3,4.2-3.1,6.4-2.7,6.5h0q0,0,0,0c-.4.2-.7.6-.7,1.1h0c-.6,1-1.2,2.2-1.8,3.4h0c-.5.2-3.6,4.2-4.9,6.6,0-.2-.3,0-1.4,1.5v.5h0s0,.2-.2.3c-.2,0-.3.2-.3.4-.2,0-.3.2-.3.4-.7,0-1.1.5-1.4,1.1-3.6,2.7-5.3,3.9-6,4.8,0,0-.3,0-.7.2-1.3.9-2.8,1.6-4.2,2.3-3.5,1.8-6,2.1-6.7,3.2h0c0-.2-.5,0-1.7.8h0c-.7-.2-4,.7-4.6.8-.3,0-.5.3-.8.6-.2,0-.3,0-.3,0h-.7c-4.5-1.7-4,.6-10.1.4h-.3c0-.2,0-.3-.9-.3-1.6,0-3.4,0-4.5,0h0c-.9,0-2,.2-2.8-.2-1.6-.8-2.5-.2-3-.8-.2-.4-.7-.6-.9-1.1-.4-1.2-1.4-1.9-2.6-2.3h-.2c0-.2-.3-.4-.5-.6-.7-.8-1.6-1.2-2.3-1.9-.7-.7-1.4-1-2.2-1.1,0,0-.2,0-.3-.2-1.4-.7-2.7-1.5-4-2.5,0-.2,0-.5-.2-.6-.9-.6-1.7-1.2-2.7-1.7-1-1.5-2.1-3.3-3-4.5v-.7c-.8-.3-.6-1.3-1.4-1.5-.2-.3-.4-.8-.8-1.4-.3-.7-.8-1.7-1.3-3-1.9-5.2-.8-3.2-1.5-4.6h0c.2-.7.2-1.2-.3-1.8-1.1-10.7-.2-8.7-.8-10.8v-1.4c.3-6.4-.2-5.8.4-8.2.6-.4.2-1.5.6-1.9v-1c.7-1.7,1.2-3.5,1.6-5.3h-.1c0-.2,0-.4-.2-.5.7-.4,1.2-2.2,2.7-6.7h0c1.5-1.3,5-7.8,6.4-8.3-.3-.3,1.8-.7,1.4-2.1.6,0,1.1-.3,1.6-1.4.7-.4,1.3-1,1.8-1.7.2-.8.9-.5,2.6-2.3.2,0,.3-.2.4-.3h0c.3,0,.6-.3.8-.6.3,0,.5-.2.6-.4h0c.2,0,.4-.2.5-.4h0c.3,0,.4-.2.4-.3s0,0,0,0c.2,0,.3-.2.3-.3h0c1.1-.8,2.2-1.7,3.5-2.3.7-.4,1.3-.8,1.8-1.4h0c.2,0,.4-.1.4-.3.2,0,.4-.2.5-.4.2,0,.5,0,.7-.3q.2,0,.2-.1h0c.5,0,.8-.4,1.1-.7.2,0,.4-.1.5-.3h.2c.2,0,.4,0,.5-.3h0c1.4-.8,3.4,0,4.2-1.2h.3c8.3-2.5,9-1.6,9.6-2.2,2.8.2,5.9.8,8.1,0h0c-.4.3.5,1,.9,1,2.2.3,4.3,1.1,6.6,1.2h0c.9,1.1,2.2,1.6,3.6,1.6,0,.1.2.2.4.3h.2c0,.1.3.2.6.3h0c0,0,0,.3.3.3h0c0,.4.3.6.7.7h0c0,0,.2.1.3.1,0,.2.2.3.4.3h0c1.3.8,3.4,1.4,3.6,1.6s.3.5.5.5c1.8.6,3.8,3.1,4.6,3.5,0,.5.3.7.6.9.9.5.6,1,2.2,1.1.3,0,.6,0,.8,0h0c0,.7.4,1.6.8,1.8,0,.3,0,1,.7,1.4h0c0,.2.2.4.4.7.5.8.9,1.7,1.4,2.5,0,.7.2.8.3.6v.2h0c0,1.1.3,2.1,1,2.9,0,.5,0,1.1.4,1.5,0,.2,1.8,4.1,2.8,10.7h0c0,2.4.4,4.8.8,7.1v.4h0v.3c-.3,0-.5.2,0,.6,0,4.5,0,5.4.3,5.6-.2.3,0,1.2,0,1.5l-.4-.9Z"/>
</svg>