<?xml version="1.0" encoding="UTF-8"?>
<svg id="Livello_1" data-name="Livello 1" xmlns="http://www.w3.org/2000/svg" viewBox="0 0 140.67 73.82">
  <defs>
    <style>
      .cls-1 {
        fill: #cb1517;
        stroke-width: 0px;
      }
    </style>
  </defs>
  <path class="cls-1" d="M80.56,46.36h-5.91v-19.14h5.91v19.14ZM97.79,46.36h-14.37v-19.14h14.37v4.41h-8.61v2.8h6.97v4.27h-6.97v3.09h8.61v4.58h0ZM106.74,41.95c.78,0,1.29.06,2.01-.33.53-.31.94-.72,1.25-1.25.67-1.11.9-2.4.9-3.68s-.37-2.96-1.17-4.02c-.92-1.14-1.82-1.09-3.15-1.09h-.67v10.37h.84ZM100.02,27.22h7.06c2.76,0,4.97.37,7.03,2.35,2.01,1.9,2.93,4.52,2.93,7.26s-.88,5.13-2.64,6.95c-1.9,1.98-4.27,2.6-6.93,2.6h-7.45v-19.15ZM59.92,28.85l-15.87,18.57c-1.65-1.35-2.99-3.07-3.9-5.03l19.76-13.54ZM53.05,22.25c-7.84,0-14.2,6.36-14.2,14.2,0,1.13.13,2.24.38,3.29l21.87-14.99c-2.29-1.58-5.06-2.51-8.06-2.51ZM64.35,27.85l-18.03,21.1c2,1.08,4.29,1.69,6.73,1.69,7.84,0,14.2-6.36,14.2-14.2,0-3.23-1.08-6.21-2.9-8.6ZM39.24,39.74l-10.63,7.28,13.01-25.64c.34-.67.07-1.49-.6-1.82-.67-.34-1.48-.07-1.82.6l-15.41,30.37c-.28.55-.15,1.23.32,1.63.47.41,1.15.45,1.66.1l14.39-9.86c-.39-.84-.7-1.73-.92-2.66ZM40,52.17c-.49.57-.42,1.43.15,1.91.26.22.57.32.88.32.38,0,.76-.16,1.03-.48l4.26-4.98c-.81-.44-1.56-.95-2.27-1.52l-4.05,4.74ZM68.63,21.03c-.45-.51-1.21-.6-1.78-.21l-5.74,3.94c1.24.85,2.33,1.9,3.24,3.1l4.3-5.03c.44-.52.43-1.28-.02-1.79Z"/>
</svg>