<?xml version="1.0" encoding="UTF-8"?>
<svg id="Livello_1" data-name="Livello 1" xmlns="http://www.w3.org/2000/svg" viewBox="0 0 233.4 83.73">
  <defs>
    <style>
      .cls-1 {
        fill: #000;
        stroke-width: 0px;
      }
    </style>
  </defs>
  <path class="cls-1" d="M115.8,20.95v.38l-.44.1.18-1.04h.43l-.03,1.02c-.44.24-.92.34-1.42.34-1.41,0-2.37-1.01-2.37-2.45s1-2.45,2.37-2.45c.39,0,.88.07,1.35.34l.03,1.02h-.43l-.18-1.04.44.1v.42c-.4-.37-.78-.49-1.12-.49-.93,0-1.69.73-1.69,2.1s.68,2.1,1.64,2.1c.4,0,.84-.12,1.23-.45ZM128.28,21.36l.7-.1h.14l.76.1v.29h-1.6v-.29ZM130.36,16.92h.44l1.61,4.72h-.68l-1.4-4.17.17-.02-1.42,4.19h-.33l1.62-4.72ZM129.54,19.8h1.89l.11.33h-2.12l.11-.33ZM130.91,21.36l.88-.1h.16l.87.1v.28h-1.91v-.28ZM145.09,21.36l.74-.1h.14l.81.1v.29h-1.69v-.29ZM145.53,17.18l.43.17-.84-.1v-.29h1.08l2.88,3.97v.77h-.25l-3.32-4.52ZM145.69,16.96l.36.29v4.4h-.36v-4.69ZM147.99,16.96h1.69v.29l-.7.1h-.14l-.85-.1v-.29ZM148.73,16.96h.36v4.73l-.36-.36v-4.38ZM162.4,17.31l.33-.35-.22,1.25h-.4l.05-1.25h3.84l.05,1.25h-.4l-.22-1.25.33.35h-3.35ZM164.15,21.25l.98.1v.29h-2.12v-.29l.98-.1h.15ZM163.74,19.13c0-.72,0-1.45-.02-2.17h.7c-.02.71-.02,1.44-.02,2.17v.34c0,.72,0,1.45.02,2.17h-.7c.02-.71.02-1.44.02-2.17v-.34ZM178.5,17.24v-.29h1.98v.29l-.92.1h-.14l-.92-.1ZM179.56,21.25l.92.1v.29h-1.98v-.29l.92-.1h.14ZM179.15,19.13c0-.72,0-1.45-.02-2.17h.7c-.02.71-.02,1.44-.02,2.17v.34c0,.72,0,1.45.02,2.17h-.7c.02-.71.02-1.44.02-2.17v-.34ZM193.05,21.36l.74-.1h.14l.81.1v.29h-1.69v-.29ZM193.49,17.18l.43.17-.84-.1v-.29h1.08l2.88,3.97v.77h-.25l-3.32-4.52ZM193.65,16.96l.36.29v4.4h-.36v-4.69ZM195.96,16.96h1.69v.29l-.7.1h-.14l-.85-.1v-.29ZM196.7,16.96h.36v4.73l-.36-.36v-4.38ZM209.67,21.36l.7-.1h.14l.76.1v.29h-1.61v-.29ZM211.75,16.92h.44l1.61,4.72h-.68l-1.4-4.17.17-.02-1.42,4.19h-.33l1.62-4.72ZM210.94,19.8h1.89l.11.33h-2.12l.11-.33ZM212.31,21.36l.88-.1h.16l.87.1v.28h-1.91v-.28ZM83.31,17.61c-6.71-15.03-29.88-14.3-35.8.8C38.73,0,9.47,6.63,9.8,27.35c-.04,11.38,9.69,20.57,21.04,19.89-7.93,12.5,1.98,30.21,16.92,29.79,15.66.49,25.43-18.91,15.99-31.2,14.83,1.78,26.46-14.91,19.56-28.22ZM45.28,32.74s.02-.02.03-.02c1.64-1.31,3.46-1.26,4.92-.47,1.5.61,2.67,1.93,2.76,3.97.08.65.01,1.3-.23,1.95-.02.04-.03.08-.04.11-.24.61-.64,1.19-1.22,1.72-.13.12-.26.23-.39.33-.01.01-.02.02-.04.03-1.69,1.31-3.54,1.22-5,.38-.01,0-.02,0-.03-.01-1.44-.63-2.54-1.94-2.61-3.91v-.03c-.07-.66,0-1.35.27-2,.29-.72.79-1.42,1.57-2.03ZM27.87,42.92c-.36,0-.71,0-1.05-.03-4.6-.24-8.25-2.35-10.72-5.38-.04-.05-.08-.09-.12-.14-5.19-6.5-5.05-17.07,2.53-22.53.06-.04.12-.08.18-.12.66-.47,1.37-.89,2.13-1.27,4.82-2.54,9.76-2.17,13.8-.06.01,0,.02.01.03.02,4.29,2.25,7.54,6.45,8.54,11.2,0,.02,0,.04.01.06.76,3.71.14,7.73-2.45,11.42-3.07-9.76-15.43.79-6.25,5.35-2.01.95-4.27,1.48-6.64,1.48ZM63.33,59.82c.01.45,0,.9-.05,1.35-.02.18-.03.35-.05.52-.12.98-.33,1.95-.66,2.89-.38,1.28-.89,2.44-1.53,3.48-.07.11-.14.21-.21.32-2.52,3.94-6.71,6.16-11.12,6.66-.12.02-.24.03-.37.04-.17.02-.34.04-.51.05-4.31.27-8.74-1.08-11.94-4.06-.02-.02-.04-.03-.05-.05-1.76-1.66-3.14-3.81-3.91-6.47-3.46-9.97,4.9-20.9,15.23-20.35-3.52,6.77,7.65,10.77,9.27,3.37,1.13.86,2.13,1.91,2.96,3.1.18.25.35.51.52.77,1.39,2.25,2.23,4.9,2.39,7.58.01.12.02.25.02.37,0,.13,0,.25,0,.38v.05ZM61.11,41.31s-.09-.04-.13-.06c-3.79-1.77-6.79-5.05-8.15-9.07-.01-.03-.02-.06-.03-.09-.06-.17-.11-.34-.16-.52-.08-.24-.14-.49-.2-.73,8.62,3.31,9.24-11.27.39-8.73,3.12-10.72,18.67-14.16,26.04-5.67,2.59,2.55,3.91,5.73,4.17,8.99,0,.01,0,.02,0,.03,0,0,0,0,0,0,.41,5.12-1.77,10.43-5.66,13.79-.02.02-.03.03-.05.04-2.59,2.21-5.92,3.56-9.76,3.43-2.28.02-4.47-.49-6.46-1.41ZM129.63,35.85c-1.37-1.35-2.97-2.02-4.81-2.02s-3.39.72-4.67,2.15c-1.28,1.44-2.57,3.57-3.85,6.41.05-.63.1-1.19.18-1.67l.04-.28.9-7.1c-.08-.03-.17-.05-.26-.05-.62,0-1.45.37-2.51,1.1-1.07.74-1.84,1.34-2.33,1.81-.09.07-.18,2.12-.29,6.14-.12,4.02-.33,7.72-.63,11.09-1.86,5.82-2.79,10.58-2.79,14.27,0,.51.11,1.05.33,1.62.22.57.59.86,1.1.86s1.3-.39,2.38-1.16c1.09-.77,1.67-1.32,1.76-1.64.97-3.59,1.46-8.81,1.46-15.67,1.72,1,3.42,1.51,5.11,1.51,3.27,0,5.91-1.12,7.92-3.34,2.01-2.23,3.02-4.79,3.02-7.68s-.69-5.01-2.06-6.35ZM124.52,47.57c-3.15,0-5.7-2.56-5.7-5.71s2.55-5.7,5.7-5.7,5.7,2.55,5.7,5.7-2.55,5.71-5.7,5.71ZM223.07,38.73c-.14,0-.31.05-.53.16l-.8.38c-.36.18-.87.44-1.56.78-.68.34-1.91.74-3.68,1.21-.04-2.37-.79-4.29-2.25-5.76-1.46-1.47-3.04-2.21-4.75-2.21s-3.17.36-4.41,1.08c-2.74,0-4.98,1.06-6.73,3.17-1.6,1.94-2.45,4-2.59,6.16-1.06,1.77-2.13,3.27-3.21,4.48-1.32,1.49-2.36,2.25-3.11,2.29-.27,0-.4-.4-.4-1.21s.21-2.75.63-5.82.63-5.39.63-6.97c0-.76-.37-1.39-1.1-1.89-.73-.5-1.55-.75-2.48-.75s-1.98.52-3.15,1.56c-1.18,1.04-2.6,2.67-4.28,4.9s-2.61,3.45-2.79,3.66c0-.5.04-1.24.13-2.24l.74-8.41c-.11,0-.23-.01-.37-.01-.51,0-1.32.34-2.45,1.02s-1.91,1.21-2.36,1.56c-.44.36-.66,1.4-.66,3.13v3.18c0,.46-.02,1.03-.06,1.66-1.03,1.71-2.07,3.16-3.12,4.34-1.33,1.49-2.37,2.25-3.12,2.29-.26,0-.4-.49-.4-1.45,0-2.1.04-3.84.11-5.2,0-.14.01-.28.02-.42l.04-.62.58-8.95c-.62.02-1.37.3-2.24.83-.91.56-1.54,1.04-1.89,1.43-1.77-1.51-3.36-2.26-4.77-2.26-3.28,0-5.92,1.11-7.93,3.34-1.69,1.87-2.66,3.98-2.93,6.32-1.1,1.86-2.21,3.43-3.33,4.69-1.33,1.49-2.37,2.25-3.12,2.29-.27,0-.4-.49-.4-1.45,0-2.43.07-4.42.21-5.95,0-.05,0-.1,0-.15l.06-.56.97-9.05s-.1-.02-.15-.02c-.65,0-1.54.39-2.69,1.18-1.15.79-1.84,1.33-2.06,1.62-.22.29-.47,2.23-.76,5.84-.29,3.61-.43,6.19-.43,7.73s.15,2.44.46,2.69c.89.58,2.19.87,3.92.87,2.04,0,4.48-2.21,7.32-6.61.23,2,.86,3.53,1.89,4.59,1.33,1.34,2.88,2.02,4.65,2.02s3.21-.57,4.34-1.7,2.26-2.86,3.41-5.2c-.08,1.73-.13,3.1-.13,4.12s.16,1.66.47,1.91c.88.58,2.18.87,3.91.87,1.92,0,4.19-1.95,6.82-5.84,0,.09,0,.17-.02.26-.25,2.43-.37,3.84-.37,4.26s.49.73,1.46.97c.97.23,1.99.35,3.05.35.71,0,1.06-.51,1.06-1.51l-.07-1.67c0-1.11.14-2.3.4-3.56.14-.68,1.28-2.25,3.45-4.71,2.17-2.46,3.51-3.69,4.01-3.69s.77.59.77,1.78-.13,2.97-.37,5.36c-.24,2.39-.36,4.11-.36,5.17s.15,1.71.46,1.96c.88.58,2.19.87,3.91.87,2.06,0,4.52-2.24,7.4-6.71.32,1.48.96,2.83,1.95,4.04,1.46,1.78,3.56,2.67,6.3,2.67,3.76,0,6.66-.94,8.69-2.8,2.03-1.87,3.2-4.31,3.51-7.33,2.04-.65,3.74-1.37,5.11-2.18s2.06-1.37,2.06-1.7-.18-.48-.53-.48ZM153.27,50.03c-3.15,0-5.7-2.56-5.7-5.71s2.55-5.7,5.7-5.7,5.7,2.55,5.7,5.7-2.55,5.71-5.7,5.71ZM208.5,46.44c-3.15,0-5.7-2.56-5.7-5.71s2.55-5.7,5.7-5.7,5.71,2.56,5.71,5.7-2.56,5.71-5.71,5.71Z"/>
</svg>